<svg width="18" height="18" viewBox="0 0 18 18" fill="none" xmlns="http://www.w3.org/2000/svg">
<g clip-path="url(#clip0_21_1485)">
<path d="M2.70085 12.9007H0.901098C0.404337 12.9012 0.00174797 13.3038 0.0012207 13.8006V17.7C0.0012207 17.8657 0.135499 18 0.301168 18H3.30075C3.46642 18 3.60069 17.8657 3.60069 17.7V13.8006C3.60017 13.3038 3.19761 12.9013 2.70085 12.9007ZM3.0008 17.4001H0.601115V13.8006C0.601326 13.635 0.735499 13.5008 0.901062 13.5006H2.70082C2.86638 13.5008 3.00055 13.635 3.00076 13.8006L3.0008 17.4001Z" fill="white"/>
<path d="M7.50017 8.70129H5.70041C5.20365 8.70182 4.80106 9.10441 4.80054 9.60117V17.7001C4.80054 17.8657 4.93482 18 5.10048 18H8.10006C8.26573 18 8.40001 17.8657 8.40001 17.7001V9.60117C8.39948 9.10438 7.99693 8.70182 7.50017 8.70129ZM7.80012 17.4001H5.40043V9.60117C5.40064 9.43561 5.53482 9.30143 5.70038 9.30122H7.50013C7.6657 9.30143 7.79987 9.43561 7.80008 9.60117L7.80012 17.4001Z" fill="white"/>
<path d="M12.2995 10.501H10.4997C10.003 10.5016 9.60038 10.9042 9.59985 11.4009V17.7001C9.59985 17.8657 9.73413 18 9.8998 18H12.8994C13.065 18 13.1993 17.8657 13.1993 17.7001V11.4009C13.1988 10.9041 12.7962 10.5016 12.2995 10.501ZM12.5995 17.4001H10.1998V11.4009C10.2 11.2354 10.3342 11.1012 10.4997 11.101H12.2995C12.465 11.1012 12.5992 11.2354 12.5994 11.4009L12.5995 17.4001Z" fill="white"/>
<path d="M17.0988 8.10136H15.299C14.8023 8.10189 14.3997 8.50448 14.3992 9.00124V17.7001C14.3992 17.8657 14.5334 18 14.6991 18H17.6987C17.8644 18 17.9986 17.8657 17.9986 17.7001V9.00124C17.9981 8.50448 17.5956 8.10189 17.0988 8.10136ZM17.3987 17.4001H14.9991V9.00124C14.9993 8.83568 15.1334 8.7015 15.299 8.70129H17.0988C17.2643 8.7015 17.3985 8.83568 17.3987 9.00124V17.4001H17.3987Z" fill="white"/>
<path d="M14.8555 3.59557C15.405 4.21409 16.3057 4.37797 17.0378 3.99264C17.77 3.60731 18.1449 2.77218 17.9461 1.969C17.7474 1.16583 17.0264 0.60186 16.199 0.602352C15.5984 0.601895 15.0372 0.901315 14.7031 1.4005C14.369 1.89969 14.3062 2.53269 14.5357 3.08777L12.7432 4.20822C12.4207 3.84261 11.9631 3.62425 11.476 3.60351C10.9889 3.58277 10.5144 3.76152 10.162 4.09841L8.19872 2.62595C8.61379 1.82313 8.36899 0.836988 7.62666 0.321457C6.88434 -0.194074 5.87479 -0.0790587 5.26747 0.59026C4.66016 1.25958 4.6435 2.27553 5.22853 2.96439L2.71372 5.95289C1.90735 5.47842 0.871891 5.70096 0.331649 6.46484C-0.208594 7.22872 -0.0734717 8.27915 0.642563 8.8814C1.3586 9.48364 2.41662 9.43682 3.07666 8.77369C3.7367 8.11056 3.77853 7.05229 3.1729 6.3391L5.68771 3.3506C6.37819 3.76134 7.25789 3.66102 7.83817 3.10535L9.80145 4.5778C9.41935 5.31792 9.59518 6.22356 10.2265 6.76693C10.8577 7.3103 11.7795 7.34932 12.4545 6.86128C13.1294 6.37323 13.3812 5.48573 13.0631 4.71595L14.8555 3.59557ZM16.199 1.20228C16.8617 1.20228 17.3989 1.73947 17.3989 2.40211C17.3981 3.06443 16.8614 3.60119 16.199 3.60193C15.5364 3.60193 14.9992 3.06475 14.9992 2.40211C14.9992 1.73947 15.5364 1.20228 16.199 1.20228ZM1.80101 8.70128C1.13837 8.70128 0.60119 8.16409 0.60119 7.50146C0.60119 6.83882 1.13837 6.30163 1.80101 6.30163C2.46365 6.30163 3.00084 6.83882 3.00084 7.50146C3.00007 8.16378 2.46334 8.70051 1.80101 8.70128ZM6.60035 3.00204C5.93771 3.00204 5.40052 2.46485 5.40052 1.80221C5.40052 1.13957 5.93771 0.602387 6.60035 0.602387C7.26299 0.602387 7.80017 1.13957 7.80017 1.80221C7.79943 2.46453 7.26267 3.0013 6.60035 3.00204ZM11.3997 6.60154C10.737 6.60154 10.1999 6.06436 10.1999 5.40172C10.1999 4.73908 10.737 4.20189 11.3997 4.20189C12.0623 4.20189 12.5995 4.73908 12.5995 5.40172C12.5988 6.06404 12.062 6.6008 11.3997 6.60154Z" fill="white"/>
</g>
<defs>
<clipPath id="clip0_21_1485">
<rect width="18" height="18" fill="white"/>
</clipPath>
</defs>
</svg>
