<svg width="18" height="18" viewBox="0 0 18 18" fill="none" xmlns="http://www.w3.org/2000/svg">
<path d="M14.9973 6.61653C14.1653 3.30243 10.8044 1.29023 7.49028 2.12215C4.90039 2.77229 3.01984 5.01069 2.82608 7.67388C0.987154 7.97714 -0.257768 9.7137 0.0454918 11.5526C0.315076 13.1875 1.73165 14.3847 3.38852 14.3781H6.20071V13.2533H3.38852C2.14602 13.2533 1.13877 12.246 1.13877 11.0035C1.13877 9.76102 2.14602 8.75376 3.38852 8.75376C3.69916 8.75376 3.95096 8.50196 3.95096 8.19132C3.94815 5.39568 6.21221 3.12709 9.00784 3.12431C11.4279 3.12189 13.5111 4.83275 13.9792 7.20705C14.0255 7.44412 14.2179 7.62522 14.4573 7.657C15.9949 7.87597 17.0639 9.29996 16.845 10.8376C16.6484 12.2183 15.4695 13.2463 14.0749 13.2533H11.8251V14.3781H14.0749C16.2492 14.3716 18.0066 12.6035 18 10.4292C17.9945 8.61916 16.7556 7.04605 14.9973 6.61653Z" fill="white"/>
<path d="M8.61352 8.91689L6.36377 11.1666L7.15681 11.9597L8.45042 10.6717V16.0655H9.57529V10.6717L10.8633 11.9597L11.6563 11.1666L9.40656 8.91689C9.18718 8.69881 8.83291 8.69881 8.61352 8.91689Z" fill="white"/>
</svg>
