<svg width="18" height="18" viewBox="0 0 18 18" fill="none" xmlns="http://www.w3.org/2000/svg">
<g clip-path="url(#clip0_21_1480)">
<path d="M6.93745 6.00005H1.31245C0.58873 6.00005 0 5.41132 0 4.68745V1.31245C0 0.58873 0.58873 0 1.31245 0H6.93745C7.66132 0 8.25005 0.58873 8.25005 1.31245V4.68745C8.25005 5.41132 7.66132 6.00005 6.93745 6.00005ZM1.31245 1.125C1.20905 1.125 1.125 1.20905 1.125 1.31245V4.68745C1.125 4.791 1.20905 4.87505 1.31245 4.87505H6.93745C7.041 4.87505 7.12505 4.791 7.12505 4.68745V1.31245C7.12505 1.20905 7.041 1.125 6.93745 1.125H1.31245Z" fill="white"/>
<path d="M6.93745 18H1.31245C0.58873 18 0 17.4113 0 16.6875V8.81255C0 8.08868 0.58873 7.49995 1.31245 7.49995H6.93745C7.66132 7.49995 8.25005 8.08868 8.25005 8.81255V16.6875C8.25005 17.4113 7.66132 18 6.93745 18ZM1.31245 8.62495C1.20905 8.62495 1.125 8.709 1.125 8.81255V16.6875C1.125 16.791 1.20905 16.875 1.31245 16.875H6.93745C7.041 16.875 7.12505 16.791 7.12505 16.6875V8.81255C7.12505 8.709 7.041 8.62495 6.93745 8.62495H1.31245Z" fill="white"/>
<path d="M16.6876 18H11.0626C10.3387 18 9.75 17.4113 9.75 16.6875V13.3125C9.75 12.5887 10.3387 12 11.0626 12H16.6876C17.4113 12 18 12.5887 18 13.3125V16.6875C18 17.4113 17.4113 18 16.6876 18ZM11.0626 13.125C10.959 13.125 10.875 13.209 10.875 13.3125V16.6875C10.875 16.791 10.959 16.875 11.0626 16.875H16.6876C16.791 16.875 16.875 16.791 16.875 16.6875V13.3125C16.875 13.209 16.791 13.125 16.6876 13.125H11.0626Z" fill="white"/>
<path d="M16.6876 10.5H11.0626C10.3387 10.5 9.75 9.9113 9.75 9.18744V1.31244C9.75 0.588715 10.3387 -1.52588e-05 11.0626 -1.52588e-05H16.6876C17.4113 -1.52588e-05 18 0.588715 18 1.31244V9.18744C18 9.9113 17.4113 10.5 16.6876 10.5ZM11.0626 1.12498C10.959 1.12498 10.875 1.20903 10.875 1.31244V9.18744C10.875 9.29099 10.959 9.37503 11.0626 9.37503H16.6876C16.791 9.37503 16.875 9.29099 16.875 9.18744V1.31244C16.875 1.20903 16.791 1.12498 16.6876 1.12498H11.0626Z" fill="white"/>
</g>
<defs>
<clipPath id="clip0_21_1480">
<rect width="18" height="18" fill="white"/>
</clipPath>
</defs>
</svg>
