<svg width="18" height="18" viewBox="0 0 18 18" fill="none" xmlns="http://www.w3.org/2000/svg">
<path d="M17.3062 2.76879L15.6186 1.08129C15.4541 0.916686 15.1871 0.91648 15.0224 1.08108C15.0224 1.08118 15.0223 1.08129 15.0221 1.08129L9.95971 6.14389C9.88056 6.22294 9.83618 6.33017 9.83618 6.44203V8.12964C9.83618 8.36256 10.025 8.55141 10.258 8.55141H11.9456C12.0574 8.55141 12.1646 8.50703 12.2437 8.42788L17.3062 3.36538C17.4709 3.20078 17.471 2.9338 17.3065 2.7691C17.3064 2.7691 17.3064 2.76889 17.3062 2.76879ZM11.7708 7.70776H10.6798V6.61685L15.3205 1.97622L16.4114 3.06713L11.7708 7.70776Z" fill="white"/>
<path d="M16.164 6.02025C15.931 6.02025 15.7422 6.20911 15.7422 6.44203V12.3483C15.7415 13.0469 15.1752 13.6132 14.4766 13.614H10.2578C10.1665 13.6138 10.0776 13.6434 10.0047 13.6983L7.30469 15.7234V14.0359C7.30469 13.8029 7.11584 13.614 6.88281 13.614H2.66406C1.96541 13.6132 1.39916 13.0469 1.39854 12.3484V4.75452C1.39926 4.05597 1.96541 3.48972 2.66406 3.489H10.2578C10.4908 3.489 10.6797 3.30015 10.6797 3.06713C10.6797 2.83421 10.4908 2.64536 10.2578 2.64536H2.66406C1.49957 2.64649 0.555823 3.59024 0.554688 4.75452V12.3484C0.555823 13.5128 1.49957 14.4565 2.66406 14.4578H6.46094V16.5671C6.46094 16.8001 6.64979 16.9889 6.88281 16.9889C6.97415 16.9889 7.0629 16.9593 7.13596 16.9046L10.3989 14.4577H14.4766C15.6411 14.4565 16.5847 13.5128 16.5859 12.3483V6.44213C16.5859 6.20911 16.397 6.02025 16.164 6.02025Z" fill="white"/>
<path d="M7.72646 5.17651H3.50792C3.27479 5.17651 3.08594 5.36537 3.08594 5.59839C3.08594 5.83131 3.27479 6.02016 3.50792 6.02016H7.72646C7.95948 6.02016 8.14844 5.83131 8.14844 5.59839C8.14844 5.36537 7.95948 5.17651 7.72646 5.17651Z" fill="white"/>
<path d="M3.50792 8.55151H7.72646C7.95948 8.55151 8.14844 8.36256 8.14844 8.12964C8.14844 7.89662 7.95948 7.70776 7.72646 7.70776H3.50792C3.27479 7.70776 3.08594 7.89662 3.08594 8.12964C3.08594 8.36256 3.27479 8.55151 3.50792 8.55151Z" fill="white"/>
<path d="M3.50792 11.0827H13.6328C13.8658 11.0827 14.0546 10.8938 14.0546 10.6608C14.0546 10.4279 13.8657 10.239 13.6328 10.239H3.50792C3.27479 10.239 3.08594 10.4279 3.08594 10.6608C3.08594 10.8938 3.27479 11.0827 3.50792 11.0827Z" fill="white"/>
</svg>
