<svg width="17" height="17" viewBox="0 0 17 17" fill="none" xmlns="http://www.w3.org/2000/svg">
<g clip-path="url(#clip0_4_436)">
<path d="M16.8192 6.90837L8.76094 1.00827C8.60555 0.89452 8.39444 0.89452 8.23912 1.00827L0.180787 6.90837C-0.0160408 7.0525 -0.0588064 7.32889 0.0853283 7.52572C0.229463 7.72254 0.505879 7.76524 0.702674 7.62117L8.5 1.9121L16.2973 7.62114C16.3759 7.67875 16.4673 7.70647 16.5579 7.70647C16.6939 7.70647 16.8281 7.64389 16.9146 7.52568C17.0588 7.32889 17.016 7.0525 16.8192 6.90837Z" fill="white"/>
<path d="M14.6839 7.72116C14.44 7.72116 14.2422 7.91892 14.2422 8.16286V15.1936H10.7087V11.3558C10.7087 10.1379 9.71786 9.1471 8.50003 9.1471C7.28221 9.1471 6.29136 10.138 6.29136 11.3558V15.1936H2.75778V8.1629C2.75778 7.91895 2.55999 7.72119 2.31608 7.72119C2.07217 7.72119 1.87438 7.91895 1.87438 8.1629V15.6354C1.87438 15.8793 2.07217 16.0771 2.31608 16.0771H6.73306C6.96535 16.0771 7.15544 15.8976 7.17304 15.6698C7.1741 15.6594 7.17476 15.6481 7.17476 15.6354V11.3558C7.17476 10.625 7.76927 10.0305 8.50003 10.0305C9.2308 10.0305 9.8253 10.6251 9.8253 11.3558V15.6354C9.8253 15.6481 9.82597 15.6592 9.82703 15.6694C9.84443 15.8974 10.0346 16.0771 10.267 16.0771H14.684C14.9279 16.0771 15.1257 15.8793 15.1257 15.6354V8.1629C15.1256 7.91892 14.9279 7.72116 14.6839 7.72116Z" fill="white"/>
</g>
<defs>
<clipPath id="clip0_4_436">
<rect width="17" height="17" fill="white"/>
</clipPath>
</defs>
</svg>
