<svg width="25" height="25" viewBox="0 0 25 25" fill="none" xmlns="http://www.w3.org/2000/svg">
<g clip-path="url(#clip0_4_436)">
<path d="M24.7341 10.1594L12.8837 1.48276C12.6552 1.31548 12.3448 1.31548 12.1164 1.48276L0.265867 10.1594C-0.0235863 10.3713 -0.0864769 10.7778 0.125486 11.0672C0.337449 11.3567 0.743943 11.4195 1.03335 11.2076L12.5 2.81191L23.9666 11.2076C24.0823 11.2923 24.2166 11.3331 24.3499 11.3331C24.5499 11.3331 24.7472 11.241 24.8745 11.0672C25.0865 10.7778 25.0236 10.3713 24.7341 10.1594Z" fill="white"/>
<path d="M21.594 11.3546C21.2354 11.3546 20.9445 11.6455 20.9445 12.0042V22.3435H15.7481V16.6997C15.7481 14.9086 14.291 13.4516 12.5001 13.4516C10.7091 13.4516 9.252 14.9087 9.252 16.6997V22.3436H4.05557V12.0043C4.05557 11.6455 3.7647 11.3547 3.40601 11.3547C3.04732 11.3547 2.75645 11.6455 2.75645 12.0043V22.9932C2.75645 23.3519 3.04732 23.6427 3.40601 23.6427H9.90156C10.2432 23.6427 10.5227 23.3788 10.5486 23.0438C10.5501 23.0286 10.5511 23.012 10.5511 22.9932V16.6997C10.5511 15.6251 11.4254 14.7508 12.5001 14.7508C13.5747 14.7508 14.449 15.6251 14.449 16.6997V22.9932C14.449 23.0119 14.45 23.0282 14.4515 23.0432C14.4771 23.3785 14.7567 23.6427 15.0985 23.6427H21.5941C21.9528 23.6427 22.2437 23.3519 22.2437 22.9932V12.0043C22.2436 11.6455 21.9528 11.3546 21.594 11.3546Z" fill="white"/>
</g>
<defs>
<clipPath id="clip0_4_436">
<rect width="25" height="25" fill="white"/>
</clipPath>
</defs>
</svg>
